<?xml version="1.0" encoding="utf-8"?>
<!-- Generator: Adobe Illustrator 21.0.2, SVG Export Plug-In . SVG Version: 6.00 Build 0)  -->
<svg version="1.1" id="Capa_1" xmlns="http://www.w3.org/2000/svg" xmlns:xlink="http://www.w3.org/1999/xlink" x="0px" y="0px"
	 width="90px" height="250px" viewBox="0 0 90 250" style="enable-background:new 0 0 90 250;" xml:space="preserve">
<style type="text/css">
	.st0{fill:#F52F41;}
	.st1{filter:url(#Adobe_OpacityMaskFilter);}
	.st2{fill:#FFFFFF;}
	.st3{mask:url(#mask-2_1_);fill:#F52F41;}
	.st4{filter:url(#Adobe_OpacityMaskFilter_1_);}
	.st5{mask:url(#mask-4_1_);fill:#F52F41;}
</style>
<title>4BE76686-E16B-4AA8-A9DA-BA9926FBA0AE</title>
<desc>Created with sketchtool.</desc>
<g id="Page-1">
	<g id="Abre-m치s-tarde-_x28_PRE-PEDIDO_x29_---External-Visit" transform="translate(-206.000000, -659.000000)">
		<g id="Page-1-Copy-3" transform="translate(206.000000, 659.000000)">
			<path id="Fill-1" class="st0" d="M59.6,48.6h6.8v6.2h-1.9L59.6,48.6z M52.7,40h13.7v6.2h-8.8L52.7,40z M23.3,34.1l16.5,20.7H23.3
				V34.1z M22.1,30.1c-0.7,0-1.2,0.7-1.2,1.2V56c0,0.6,0.6,1.2,1.2,1.2h45.5c0.6,0,1.2-0.6,1.2-1.2V31.3c0-0.6-0.6-1.2-1.2-1.2H54.1
				l-1.2,2.5h13.5v4.9H50.8l-0.1-0.2l-1.2,2.5l11.9,14.9H43l-7.7-9.6l5.3-4.5l-1.1-2.3l-5.8,4.9l-8.5-10.7h11.5l-1.2-2.5H22.1z
				 M44.9,13.5c2.4,0,4.3,1.9,4.3,4.3c0,2.4-1.9,4.3-4.3,4.3c-2.4,0-4.3-1.9-4.3-4.3C40.6,15.4,42.5,13.5,44.9,13.5L44.9,13.5z
				 M44.9,11c-3.7,0-6.8,3-6.8,6.8c0,3.7,3,6.8,6.8,6.8c3.7,0,6.8-3,6.8-6.8C51.6,14.1,48.6,11,44.9,11L44.9,11z M44.9,8
				c5.5,0,9.9,4.1,9.9,9.7c0,1.2-0.4,3.3-0.8,4.3c-3,6.3-6,12.5-9,18.8c-2.9-6.3-6.2-12.5-9-18.8c-0.4-1.1-0.8-3.2-0.8-4.3
				C35,12.1,39.4,8,44.9,8L44.9,8z M44.9,5.5c-6.8,0-12.3,5.3-12.3,12.2c0,1.7,0.4,3.8,1,5.3c3.4,7.1,6.8,14.2,10.2,21.3
				c0.2,0.4,0.6,0.7,1.1,0.7c0.5,0,0.9-0.3,1.1-0.7c3.4-7.1,6.9-14.1,10.2-21.3c0.6-1.5,1-3.6,1-5.3C57.2,10.8,51.6,5.5,44.9,5.5
				L44.9,5.5z"/>
		</g>
	</g>
</g>
<g id="Page-1_1_">
	<g id="Abre-m치s-tarde-_x28_PRE-PEDIDO_x29_---External-Visit_1_" transform="translate(-518.000000, -660.000000)">
		<g id="Sin-ti패tulo-1-Copy" transform="translate(518.000000, 660.000000)">
			<path id="Shape" class="st0" d="M68.6,124.9c-1.4-0.4-3-0.2-4.3,0.5c-1.3,0.8-2.2,2-2.6,3.4c-0.4,1.4-0.2,3,0.5,4.3
				c0.8,1.3,2,2.2,3.4,2.6c0.5,0.1,1,0.2,1.5,0.2c1,0,1.9-0.2,2.8-0.8l0,0c2.7-1.5,3.7-5,2.1-7.7C71.3,126.2,70.1,125.3,68.6,124.9z
				 M70.4,131.2c-0.2,0.9-0.8,1.6-1.6,2.1c-0.8,0.4-1.7,0.6-2.6,0.3c-0.9-0.2-1.6-0.8-2.1-1.6c-0.4-0.8-0.6-1.7-0.3-2.6
				c0.2-0.9,0.8-1.6,1.6-2.1c0.5-0.3,1.1-0.4,1.7-0.4c0.3,0,0.6,0,0.9,0.1c0.9,0.2,1.6,0.8,2.1,1.6
				C70.5,129.4,70.7,130.4,70.4,131.2z"/>
			<path id="Shape_1_" class="st0" d="M38.7,120.9c-3.3,0-5.9,2.6-5.9,5.9c0,3.3,2.6,5.9,5.9,5.9c3.3,0,5.9-2.6,5.9-5.9
				C44.7,123.5,42,120.9,38.7,120.9z M38.7,130.5c-2,0-3.7-1.7-3.7-3.7c0-2,1.7-3.7,3.7-3.7c2,0,3.7,1.7,3.7,3.7
				C42.5,128.8,40.8,130.5,38.7,130.5z"/>
			<path id="Shape_2_" class="st0" d="M78.4,119.1c-6-10.5-15.3-13.1-15.7-13.2c-0.5-0.1-1,0.1-1.2,0.5l-2.8,4.7l0,0l0,0l-6.9,11.6
				c-1.8-5.7-7.2-9.7-13.2-9.5c-0.7,0-1.4,0.1-2,0.2l18.2-17.1c0.4-0.4,0.5-1.1,0-1.6c-0.4-0.4-1.1-0.5-1.6,0L27.1,119l15-28.2
				c0.3-0.5,0.1-1.2-0.4-1.5c-0.5-0.3-1.2-0.1-1.5,0.4l-18,33.9L6.8,138.1c-0.4,0.4-0.5,1.1,0,1.6c0.2,0.2,0.5,0.4,0.8,0.4
				c0.3,0,0.6-0.1,0.8-0.3l10.6-10l-4.5,8.6c-0.3,0.5-0.1,1.2,0.4,1.5c0.2,0.1,0.4,0.1,0.5,0.1c0.4,0,0.8-0.2,1-0.6l7.6-14.3
				l1.6-1.5c-0.2,0.9-0.4,1.8-0.4,2.7c-0.2,3.7,1.2,7.3,3.8,9.9c2.2,2.3,5.2,3.8,8.4,4.1c0.1,0,0.2,0.1,0.4,0.1h5.4l0,0h1.6h0
				l30.4-0.1l0,0h5.5c0.5,0,0.9-0.3,1.1-0.8C81.9,139,84.4,129.6,78.4,119.1z M56,119.8c1,0.3,1.8,1,2.2,2c0.5,1.3,0,2.9-1.1,3.8
				c-0.1,0.1-0.2,0.2-0.4,0.2c-0.8,0.5-1.8,0.6-2.7,0.2c-0.5-0.2-0.9-0.5-1.2-0.8L56,119.8z M42.5,138.1h-3.8c-3.1,0-6-1.2-8.2-3.5
				c-2.2-2.2-3.3-5.2-3.2-8.3c0.2-5.9,5.2-10.8,11.1-10.9c5.3-0.1,10.1,3.5,11.3,8.7l0,0.2c0.1,0.3,0.2,0.6,0.4,0.9L42.5,138.1z
				 M53,138.1c0.1-0.4,0.4-0.7,0.8-1c0.8-0.5,1.9-0.2,2.4,0.6c0,0.1,0.1,0.2,0.1,0.3L53,138.1z M74.4,138.1l-15.9,0l0,0
				c-0.1-0.5-0.2-1-0.5-1.4c-1.1-1.9-3.5-2.5-5.4-1.5c-1.1,0.6-1.8,1.6-2,2.9h-5.5l6.5-10.9c0.4,0.4,1,0.7,1.5,1
				c1.6,0.6,3.3,0.5,4.7-0.3c0.2-0.1,0.4-0.2,0.6-0.4c1.9-1.4,2.6-4.1,1.8-6.3c-0.6-1.5-1.7-2.6-3.1-3.2l3-5
				c1.9,0.6,3.8,1.7,5.6,3.1c4.8,3.8,8.1,9.5,8.9,15.6C74.8,134,74.8,136.1,74.4,138.1z M79.9,138h-3.2c0.4-2,0.4-4.3,0.1-6.7
				c-0.9-6.7-4.4-12.8-9.7-17c-1.9-1.5-3.9-2.6-5.8-3.3l1.6-2.7c2.3,0.8,9.1,3.9,13.6,11.9C81.1,128.2,80.3,135.6,79.9,138z"/>
		</g>
	</g>
</g>
<g id="Page-1_2_">
	<g id="Abre-m치s-tarde-_x28_PRE-PEDIDO_x29_---External-Visit_2_" transform="translate(-850.000000, -670.000000)">
		<g id="Page-1-Copy-2" transform="translate(850.000000, 670.000000)">
			<g id="Group-3" transform="translate(2.734514, 0.373918)">
				<g id="Clip-2">
				</g>
				<defs>
					<filter id="Adobe_OpacityMaskFilter" filterUnits="userSpaceOnUse" x="2.8" y="187" width="81.2" height="43.4">
						<feColorMatrix  type="matrix" values="1 0 0 0 0  0 1 0 0 0  0 0 1 0 0  0 0 0 1 0"/>
					</filter>
				</defs>
				<mask maskUnits="userSpaceOnUse" x="2.8" y="187" width="81.2" height="43.4" id="mask-2_1_">
					<g class="st1">
						<polygon id="path-1_1_" class="st2" points="2.8,230.4 84,230.4 84,187 2.8,187 						"/>
					</g>
				</mask>
				<path id="Fill-1_1_" class="st3" d="M71.8,228.2c-5.5-0.1-10-4.6-10-10.1c0-3.7,2-6.9,5-8.7l2.9,6.7c-0.8,0.8-1,2.1-0.5,3.2
					c0.7,1.4,2.4,2,3.8,1.3c1.4-0.7,2-2.4,1.3-3.8c-0.5-1-1.5-1.6-2.6-1.6l-2.9-6.8c0.9-0.3,1.9-0.5,2.9-0.5c5.5,0.1,10,4.6,10,10.1
					S77.3,228.1,71.8,228.2L71.8,228.2z M62.9,201.4l-11.2,12.9c-1.4,1.6-3.4,2.6-5.5,2.6h-9.8c-0.1-1.4-0.5-2.7-1.1-3.9h7.8
					c2.2,0,4.3-0.9,5.8-2.6l12.3-13.8l1.9,4.5C63.1,201.2,63,201.3,62.9,201.4L62.9,201.4z M24.4,227.9c-5,0-9.2-3.8-9.8-8.7h7.1
					c0,0,0,0.1,0.1,0.1c0.7,1.4,2.4,2,3.8,1.3c0.7-0.3,1.1-0.8,1.4-1.5h7.1C33.6,224.1,29.5,227.9,24.4,227.9L24.4,227.9z
					 M24.4,208.2c5,0,9.2,3.8,9.8,8.7h-7.1c0,0,0-0.1-0.1-0.1c-0.7-1.4-2.4-2-3.8-1.3c-0.7,0.3-1.1,0.8-1.4,1.5h-7.1
					C15.2,212.1,19.4,208.2,24.4,208.2L24.4,208.2z M14.6,202.4l-0.2-13.2H29l0.2,13.2H14.6z M72.1,205.7c0,0-0.1,0-0.1,0h-0.3
					c-0.1,0-0.1,0-0.1,0c-1.2,0-2.4,0.3-3.5,0.7l-8.1-18.7c-0.2-0.4-0.6-0.7-1-0.7h-6c-0.6,0-1.1,0.5-1.1,1.1c0,0.6,0.5,1.1,1.1,1.1
					h5.3l2.2,5.2L47.4,209c-1.1,1.2-2.6,1.8-4.2,1.8h-8.2l5.9-6.5c0.3-0.3,0.4-0.8,0.2-1.2c-0.2-0.4-0.6-0.7-1-0.7h-8.6l-0.2-14.3
					c0-0.6-0.5-1.1-1.1-1.1H13.3c-0.3,0-0.6,0.1-0.8,0.3c-0.2,0.2-0.3,0.5-0.3,0.8l0.2,15.4c0,0.6,0.5,1.1,1.1,1.1h24l-4.5,4.9
					c-2.2-2.2-5.2-3.6-8.6-3.6c-6.3,0-11.5,4.8-12,11H9c-0.6,0-1.1,0.5-1.1,1.1c0,0.6,0.5,1.1,1.1,1.1h3.4c0.3,3.6,2.2,6.7,5,8.7
					H3.9c-0.6,0-1.1,0.5-1.1,1.1c0,0.6,0.5,1.1,1.1,1.1h20.5c6.3,0,11.5-4.8,12-11h9.8c2.8,0,5.5-1.2,7.2-3.4l10.7-12.4l1.7,3.9
					c-3.8,2.1-6.3,6.2-6.3,10.8c0,4.2,2.1,7.9,5.3,10.1H58c-0.6,0-1.1,0.5-1.1,1.1c0,0.6,0.5,1.1,1.1,1.1h13.7h0h0.3
					c0.1,0,0.1,0,0.1,0c6.6-0.3,11.9-5.7,11.9-12.4C84,211.4,78.7,206,72.1,205.7L72.1,205.7z"/>
			</g>
			<g id="Group-6" transform="translate(0.000000, 30.453578)">
				<g id="Clip-5">
				</g>
				<defs>
					<filter id="Adobe_OpacityMaskFilter_1_" filterUnits="userSpaceOnUse" x="2.7" y="187.3" width="6" height="2.2">
						<feColorMatrix  type="matrix" values="1 0 0 0 0  0 1 0 0 0  0 0 1 0 0  0 0 0 1 0"/>
					</filter>
				</defs>
				<mask maskUnits="userSpaceOnUse" x="2.7" y="187.3" width="6" height="2.2" id="mask-4_1_">
					<g class="st4">
						<polygon id="path-3_1_" class="st2" points="2.7,189.5 2.7,187.3 8.7,187.3 8.7,189.5 						"/>
					</g>
				</mask>
				<path id="Fill-4" class="st5" d="M7.6,187.3H3.8c-0.6,0-1.1,0.5-1.1,1.1c0,0.6,0.5,1.1,1.1,1.1h3.7c0.6,0,1.1-0.5,1.1-1.1
					C8.7,187.8,8.2,187.3,7.6,187.3z"/>
			</g>
		</g>
	</g>
</g>
</svg>
